<?xml version="1.0" encoding="UTF-8"?>
<svg version="1.1" xmlns="http://www.w3.org/2000/svg" width="512" height="512">
<path d="M0 0 C0.88084629 -0.00706559 1.76169258 -0.01413118 2.66923118 -0.02141088 C3.63264182 -0.0189958 4.59605247 -0.01658071 5.58865738 -0.01409245 C6.61548575 -0.01932912 7.64231411 -0.0245658 8.70025849 -0.02996117 C12.1517243 -0.04500021 15.60304236 -0.04566719 19.05453873 -0.04633427 C21.5248782 -0.05395316 23.99521529 -0.06238019 26.46554947 -0.07155704 C33.18465457 -0.09353656 39.90370001 -0.10232737 46.6228323 -0.10738349 C50.81937442 -0.11064112 55.01590737 -0.11716402 59.21244431 -0.12438488 C70.83454849 -0.14395088 82.45664415 -0.16035491 94.07876587 -0.16326141 C94.82245092 -0.16344898 95.56613598 -0.16363655 96.33235694 -0.16382981 C97.83995199 -0.16419605 99.34754704 -0.16455975 100.85514209 -0.16492092 C101.97768131 -0.16519514 101.97768131 -0.16519514 103.1228981 -0.16547489 C103.87217253 -0.16565544 104.62144697 -0.16583599 105.39342669 -0.16602201 C117.53198422 -0.16956299 129.67036428 -0.19658051 141.80886027 -0.23397278 C154.27533185 -0.27206759 166.7417154 -0.29141898 179.20824647 -0.29172093 C186.20612833 -0.29230526 193.2037985 -0.30078135 200.20162582 -0.32971859 C206.7844212 -0.35681461 213.36687062 -0.3581273 219.9497261 -0.34206295 C222.36521441 -0.34024511 224.7807266 -0.34696919 227.19616318 -0.36288166 C230.49546104 -0.38329078 233.79328475 -0.37281906 237.09256363 -0.35466862 C238.04705139 -0.36786858 239.00153915 -0.38106855 239.98495078 -0.39466852 C246.35814289 -0.31466272 250.67850335 1.11933546 255.59457779 5.26006222 C259.52896066 10.46360086 259.71990468 15.08240432 259.72600555 21.47940445 C259.72805819 22.21130008 259.73011082 22.94319572 259.73222566 23.69727001 C259.73790436 26.16298578 259.73643734 28.62864585 259.73501968 31.09436703 C259.73760281 32.87474481 259.74061583 34.65512202 259.74402308 36.43549842 C259.75210234 41.33842951 259.75388317 46.24134597 259.75462055 51.14428294 C259.75646948 56.42797179 259.76401595 61.71165303 259.77075577 66.99533749 C259.78434574 78.55305223 259.79036472 90.11076352 259.79476643 101.66848493 C259.79752747 108.8822002 259.80176455 116.09591412 259.8062706 123.30962849 C259.81846365 143.27419132 259.82876321 163.23875307 259.83214569 183.20331955 C259.83236526 184.48142619 259.83258482 185.75953284 259.83281104 187.07636998 C259.83302932 188.3575669 259.8332476 189.63876381 259.83347249 190.95878488 C259.83391596 193.55506027 259.83436252 196.15133566 259.83481216 198.74761105 C259.83503359 200.03545845 259.83525502 201.32330585 259.83548316 202.65017893 C259.83943257 223.52562572 259.85689079 244.40103763 259.88017169 265.27647094 C259.90386952 286.69827784 259.91634681 308.12006723 259.91751361 329.54188746 C259.9184312 341.57380236 259.92420476 353.6056718 259.94233322 365.6375742 C259.95771299 375.88138457 259.9628672 386.12513545 259.95459512 396.36895517 C259.95068121 401.59710794 259.95165433 406.82514081 259.96565247 412.05327892 C259.9783468 416.83813277 259.97723328 421.62277608 259.96506175 426.40762945 C259.963097 428.13979186 259.96621892 429.87196896 259.97490612 431.6041107 C259.98596249 433.95739556 259.97853613 436.30993262 259.96651459 438.66319656 C259.96711168 439.97068369 259.96770876 441.27817082 259.96832395 442.62527877 C259.28126848 449.30708079 256.76148826 453.84928498 251.59457779 458.26006222 C248.68130973 459.99190879 246.56460942 460.51145576 243.18915558 460.52012444 C241.86788615 460.53072282 241.86788615 460.53072282 240.5199244 460.54153532 C239.55651376 460.53912023 238.59310311 460.53670515 237.6004982 460.53421688 C236.06025565 460.5420719 236.06025565 460.5420719 234.48889709 460.5500856 C231.03743128 460.56512465 227.58611321 460.56579162 224.13461685 460.5664587 C221.66427738 460.5740776 219.19394029 460.58250462 216.72360611 460.59168148 C210.00450101 460.61366099 203.28545557 460.6224518 196.56632328 460.62750793 C192.36978116 460.63076555 188.17324821 460.63728846 183.97671127 460.64450932 C172.35460709 460.66407531 160.73251142 460.68047935 149.11038971 460.68338585 C148.36670465 460.68357342 147.6230196 460.68376099 146.85679863 460.68395424 C145.34920359 460.68432049 143.84160854 460.68468419 142.33401349 460.68504535 C141.58565401 460.68522817 140.83729452 460.68541098 140.06625748 460.68559933 C139.31698304 460.68577988 138.56770861 460.68596043 137.79572889 460.68614645 C125.65717136 460.68968742 113.5187913 460.71670495 101.38029531 460.75409722 C88.91382373 460.79219202 76.44744018 460.81154341 63.98090911 460.81184536 C56.98302725 460.81242969 49.98535708 460.82090578 42.98752975 460.84984303 C36.40473438 460.87693905 29.82228496 460.87825174 23.23942947 460.86218739 C20.82394117 460.86036955 18.40842898 460.86709362 15.9929924 460.8830061 C12.69369454 460.90341521 9.39587082 460.89294349 6.09659195 460.87479305 C5.14210419 460.88799302 4.18761643 460.90119299 3.2042048 460.91479295 C-3.16898731 460.83478715 -7.48934777 459.40078897 -12.40542221 455.26006222 C-16.33980508 450.05652358 -16.5307491 445.43772012 -16.53684998 439.04071999 C-16.53890261 438.30882435 -16.54095524 437.57692872 -16.54307008 436.82285443 C-16.54874878 434.35713866 -16.54728176 431.89147859 -16.54586411 429.42575741 C-16.54844724 427.64537962 -16.55146025 425.86500242 -16.55486751 424.08462602 C-16.56294676 419.18169492 -16.56472759 414.27877846 -16.56546497 409.3758415 C-16.5673139 404.09215264 -16.57486037 398.80847141 -16.58160019 393.52478695 C-16.59519016 381.9670722 -16.60120914 370.40936092 -16.60561085 358.85163951 C-16.6083719 351.63792424 -16.61260897 344.42421031 -16.61711502 337.21049595 C-16.62930807 317.24593312 -16.63960763 297.28137136 -16.64299011 277.31680489 C-16.64320968 276.03869824 -16.64342924 274.7605916 -16.64365546 273.44375445 C-16.64387374 272.16255754 -16.64409202 270.88136062 -16.64431691 269.56133956 C-16.64476038 266.96506417 -16.64520694 264.36878878 -16.64565659 261.77251339 C-16.64587802 260.48466599 -16.64609945 259.19681858 -16.64632758 257.8699455 C-16.65027699 236.99449872 -16.66773521 216.11908681 -16.69101611 195.2436535 C-16.71471395 173.82184659 -16.72719123 152.4000572 -16.72835803 130.97823697 C-16.72927562 118.94632208 -16.73504918 106.91445263 -16.75317764 94.88255024 C-16.76855741 84.63873986 -16.77371163 74.39498899 -16.76543954 64.15116926 C-16.76152564 58.92301649 -16.76249875 53.69498362 -16.77649689 48.46684551 C-16.78919122 43.68199166 -16.7880777 38.89734836 -16.77590618 34.11249498 C-16.77394142 32.38033257 -16.77706335 30.64815548 -16.78575054 28.91601374 C-16.79680691 26.56272888 -16.78938055 24.21019182 -16.77735901 21.85692787 C-16.7779561 20.54944074 -16.77855319 19.24195361 -16.77916837 17.89484566 C-16.0921129 11.21304364 -13.57233268 6.67083945 -8.40542221 2.26006222 C-5.49215415 0.52821564 -3.37545384 0.00866867 0 0 Z " fill="#363636" transform="translate(134.40542221069336,25.739937782287598)"/>
<path d="M0 0 C0.88084629 -0.00706559 1.76169258 -0.01413118 2.66923118 -0.02141088 C3.63264182 -0.0189958 4.59605247 -0.01658071 5.58865738 -0.01409245 C6.61548575 -0.01932912 7.64231411 -0.0245658 8.70025849 -0.02996117 C12.1517243 -0.04500021 15.60304236 -0.04566719 19.05453873 -0.04633427 C21.5248782 -0.05395316 23.99521529 -0.06238019 26.46554947 -0.07155704 C33.18465457 -0.09353656 39.90370001 -0.10232737 46.6228323 -0.10738349 C50.81937442 -0.11064112 55.01590737 -0.11716402 59.21244431 -0.12438488 C70.83454849 -0.14395088 82.45664415 -0.16035491 94.07876587 -0.16326141 C94.82245092 -0.16344898 95.56613598 -0.16363655 96.33235694 -0.16382981 C97.83995199 -0.16419605 99.34754704 -0.16455975 100.85514209 -0.16492092 C101.97768131 -0.16519514 101.97768131 -0.16519514 103.1228981 -0.16547489 C103.87217253 -0.16565544 104.62144697 -0.16583599 105.39342669 -0.16602201 C117.53198422 -0.16956299 129.67036428 -0.19658051 141.80886027 -0.23397278 C154.27533185 -0.27206759 166.7417154 -0.29141898 179.20824647 -0.29172093 C186.20612833 -0.29230526 193.2037985 -0.30078135 200.20162582 -0.32971859 C206.7844212 -0.35681461 213.36687062 -0.3581273 219.9497261 -0.34206295 C222.36521441 -0.34024511 224.7807266 -0.34696919 227.19616318 -0.36288166 C230.49546104 -0.38329078 233.79328475 -0.37281906 237.09256363 -0.35466862 C238.04705139 -0.36786858 239.00153915 -0.38106855 239.98495078 -0.39466852 C246.35814289 -0.31466272 250.67850335 1.11933546 255.59457779 5.26006222 C259.52896066 10.46360086 259.71990468 15.08240432 259.72600555 21.47940445 C259.72805819 22.21130008 259.73011082 22.94319572 259.73222566 23.69727001 C259.73790436 26.16298578 259.73643734 28.62864585 259.73501968 31.09436703 C259.73760281 32.87474481 259.74061583 34.65512202 259.74402308 36.43549842 C259.75210234 41.33842951 259.75388317 46.24134597 259.75462055 51.14428294 C259.75646948 56.42797179 259.76401595 61.71165303 259.77075577 66.99533749 C259.78434574 78.55305223 259.79036472 90.11076352 259.79476643 101.66848493 C259.79752747 108.8822002 259.80176455 116.09591412 259.8062706 123.30962849 C259.81846365 143.27419132 259.82876321 163.23875307 259.83214569 183.20331955 C259.83236526 184.48142619 259.83258482 185.75953284 259.83281104 187.07636998 C259.83302932 188.3575669 259.8332476 189.63876381 259.83347249 190.95878488 C259.83391596 193.55506027 259.83436252 196.15133566 259.83481216 198.74761105 C259.83503359 200.03545845 259.83525502 201.32330585 259.83548316 202.65017893 C259.83943257 223.52562572 259.85689079 244.40103763 259.88017169 265.27647094 C259.90386952 286.69827784 259.91634681 308.12006723 259.91751361 329.54188746 C259.9184312 341.57380236 259.92420476 353.6056718 259.94233322 365.6375742 C259.95771299 375.88138457 259.9628672 386.12513545 259.95459512 396.36895517 C259.95068121 401.59710794 259.95165433 406.82514081 259.96565247 412.05327892 C259.9783468 416.83813277 259.97723328 421.62277608 259.96506175 426.40762945 C259.963097 428.13979186 259.96621892 429.87196896 259.97490612 431.6041107 C259.98596249 433.95739556 259.97853613 436.30993262 259.96651459 438.66319656 C259.96711168 439.97068369 259.96770876 441.27817082 259.96832395 442.62527877 C259.28126848 449.30708079 256.76148826 453.84928498 251.59457779 458.26006222 C248.68130973 459.99190879 246.56460942 460.51145576 243.18915558 460.52012444 C241.86788615 460.53072282 241.86788615 460.53072282 240.5199244 460.54153532 C239.55651376 460.53912023 238.59310311 460.53670515 237.6004982 460.53421688 C236.06025565 460.5420719 236.06025565 460.5420719 234.48889709 460.5500856 C231.03743128 460.56512465 227.58611321 460.56579162 224.13461685 460.5664587 C221.66427738 460.5740776 219.19394029 460.58250462 216.72360611 460.59168148 C210.00450101 460.61366099 203.28545557 460.6224518 196.56632328 460.62750793 C192.36978116 460.63076555 188.17324821 460.63728846 183.97671127 460.64450932 C172.35460709 460.66407531 160.73251142 460.68047935 149.11038971 460.68338585 C148.36670465 460.68357342 147.6230196 460.68376099 146.85679863 460.68395424 C145.34920359 460.68432049 143.84160854 460.68468419 142.33401349 460.68504535 C141.58565401 460.68522817 140.83729452 460.68541098 140.06625748 460.68559933 C139.31698304 460.68577988 138.56770861 460.68596043 137.79572889 460.68614645 C125.65717136 460.68968742 113.5187913 460.71670495 101.38029531 460.75409722 C88.91382373 460.79219202 76.44744018 460.81154341 63.98090911 460.81184536 C56.98302725 460.81242969 49.98535708 460.82090578 42.98752975 460.84984303 C36.40473438 460.87693905 29.82228496 460.87825174 23.23942947 460.86218739 C20.82394117 460.86036955 18.40842898 460.86709362 15.9929924 460.8830061 C12.69369454 460.90341521 9.39587082 460.89294349 6.09659195 460.87479305 C5.14210419 460.88799302 4.18761643 460.90119299 3.2042048 460.91479295 C-3.16898731 460.83478715 -7.48934777 459.40078897 -12.40542221 455.26006222 C-16.33980508 450.05652358 -16.5307491 445.43772012 -16.53684998 439.04071999 C-16.53890261 438.30882435 -16.54095524 437.57692872 -16.54307008 436.82285443 C-16.54874878 434.35713866 -16.54728176 431.89147859 -16.54586411 429.42575741 C-16.54844724 427.64537962 -16.55146025 425.86500242 -16.55486751 424.08462602 C-16.56294676 419.18169492 -16.56472759 414.27877846 -16.56546497 409.3758415 C-16.5673139 404.09215264 -16.57486037 398.80847141 -16.58160019 393.52478695 C-16.59519016 381.9670722 -16.60120914 370.40936092 -16.60561085 358.85163951 C-16.6083719 351.63792424 -16.61260897 344.42421031 -16.61711502 337.21049595 C-16.62930807 317.24593312 -16.63960763 297.28137136 -16.64299011 277.31680489 C-16.64320968 276.03869824 -16.64342924 274.7605916 -16.64365546 273.44375445 C-16.64387374 272.16255754 -16.64409202 270.88136062 -16.64431691 269.56133956 C-16.64476038 266.96506417 -16.64520694 264.36878878 -16.64565659 261.77251339 C-16.64587802 260.48466599 -16.64609945 259.19681858 -16.64632758 257.8699455 C-16.65027699 236.99449872 -16.66773521 216.11908681 -16.69101611 195.2436535 C-16.71471395 173.82184659 -16.72719123 152.4000572 -16.72835803 130.97823697 C-16.72927562 118.94632208 -16.73504918 106.91445263 -16.75317764 94.88255024 C-16.76855741 84.63873986 -16.77371163 74.39498899 -16.76543954 64.15116926 C-16.76152564 58.92301649 -16.76249875 53.69498362 -16.77649689 48.46684551 C-16.78919122 43.68199166 -16.7880777 38.89734836 -16.77590618 34.11249498 C-16.77394142 32.38033257 -16.77706335 30.64815548 -16.78575054 28.91601374 C-16.79680691 26.56272888 -16.78938055 24.21019182 -16.77735901 21.85692787 C-16.7779561 20.54944074 -16.77855319 19.24195361 -16.77916837 17.89484566 C-16.0921129 11.21304364 -13.57233268 6.67083945 -8.40542221 2.26006222 C-5.49215415 0.52821564 -3.37545384 0.00866867 0 0 Z M4.59457779 23.26006222 C4.59457779 155.59006222 4.59457779 287.92006222 4.59457779 424.26006222 C81.81457779 424.26006222 159.03457779 424.26006222 238.59457779 424.26006222 C238.59457779 291.93006222 238.59457779 159.60006222 238.59457779 23.26006222 C161.37457779 23.26006222 84.15457779 23.26006222 4.59457779 23.26006222 Z " fill="#F4F4F4" transform="translate(134.40542221069336,25.739937782287598)"/>
<path d="M0 0 C0.33 18.48 0.66 36.96 1 56 C5.62 49.73 10.24 43.46 15 37 C17.71841652 33.40704495 20.44098497 29.82098415 23.1875 26.25 C29.57072209 17.91331871 35.83684929 9.50044728 42 1 C53.38493395 3.4772773 64.71283927 6.1090106 76 9 C71.56749516 16.17365915 66.36010932 22.63988312 61.0703125 29.18359375 C57.54527519 33.54787368 54.13013705 37.9882196 50.73828125 42.45703125 C48.62084823 45.22734617 46.43449069 47.93485491 44.23046875 50.63671875 C43.25859619 51.8436438 43.25859619 51.8436438 42.26708984 53.07495117 C40.98392834 54.66696256 39.68898224 56.24956136 38.38134766 57.8215332 C37.50615479 58.91534302 37.50615479 58.91534302 36.61328125 60.03125 C36.08516846 60.67642578 35.55705566 61.32160156 35.01293945 61.98632812 C33.63202208 64.73152131 34.05880627 66.12160862 35 69 C35.9707513 70.7799608 35.9707513 70.7799608 37.265625 72.35546875 C37.73669678 72.96825684 38.20776855 73.58104492 38.69311523 74.21240234 C39.20688721 74.86418457 39.72065918 75.5159668 40.25 76.1875 C41.35177811 77.61992767 42.45198322 79.05356633 43.55078125 80.48828125 C44.12135254 81.23029785 44.69192383 81.97231445 45.27978516 82.73681641 C48.06544903 86.40174745 50.75268391 90.13587256 53.4375 93.875 C53.96939941 94.61476074 54.50129883 95.35452148 55.04931641 96.11669922 C56.13815411 97.63113485 57.22669337 99.14578511 58.31494141 100.66064453 C60.07207282 103.10005821 61.83768959 105.53313677 63.60546875 107.96484375 C64.19465088 108.77646973 64.78383301 109.5880957 65.39086914 110.42431641 C66.51748193 111.97584764 67.64549599 113.52636268 68.77514648 115.07568359 C69.28505127 115.77902832 69.79495605 116.48237305 70.3203125 117.20703125 C70.76648926 117.8203833 71.21266602 118.43373535 71.67236328 119.06567383 C73.21920849 121.31938008 74.61330826 123.64506307 76 126 C71.66268577 127.45579387 67.32113153 128.89783961 62.97509766 130.32739258 C61.49761793 130.81550882 60.02136135 131.3073439 58.54638672 131.80297852 C56.42466713 132.51521906 54.29889216 133.21392084 52.171875 133.91015625 C51.51443298 134.13405533 50.85699097 134.35795441 50.17962646 134.58863831 C44.20982091 136.51604679 44.20982091 136.51604679 41 135 C39.39660686 132.96292719 38.0462856 131.00495038 36.6875 128.8125 C35.80374497 127.4377325 34.91821661 126.06410391 34.03125 124.69140625 C33.54914063 123.94004395 33.06703125 123.18868164 32.5703125 122.41455078 C29.68376416 117.97612369 26.67904808 113.61802726 23.6875 109.25 C22.40620677 107.37372743 21.12495695 105.49742523 19.84375 103.62109375 C15.57674504 97.37962529 11.30858772 91.13893937 7.03588867 84.90136719 C6.5329126 84.16692383 6.02993652 83.43248047 5.51171875 82.67578125 C4.85369263 81.7153894 4.85369263 81.7153894 4.18237305 80.7355957 C3.11160052 79.16381749 2.05495761 77.58243641 1 76 C0.67 93.82 0.34 111.64 0 130 C-7.87346475 132.24956136 -7.87346475 132.24956136 -11.12109375 132.59765625 C-12.18360352 132.71657227 -12.18360352 132.71657227 -13.26757812 132.83789062 C-14.34168945 132.94907227 -14.34168945 132.94907227 -15.4375 133.0625 C-16.8737288 133.2197703 -18.30992688 133.37732138 -19.74609375 133.53515625 C-20.68473267 133.63389038 -20.68473267 133.63389038 -21.64233398 133.73461914 C-25.09873159 134.12367415 -28.54863441 134.5685793 -32 135 C-32 91.44 -32 47.88 -32 3 C-8 0 -8 0 0 0 Z " fill="#F0F0F0" transform="translate(271,171)"/>
<path d="M0 0 C3.59972554 1.30398423 6.43833908 2.87152121 9.51171875 5.14453125 C10.35283203 5.73814453 11.19394531 6.33175781 12.06054688 6.94335938 C13.8082493 8.18689188 15.54036422 9.45263459 17.25585938 10.74023438 C22.11897214 14.20596257 22.11897214 14.20596257 27.87353516 14.71630859 C30.36246173 13.97116564 32.65866939 13.1210197 35 12 C35.82427832 16.55818863 36.08990722 20.47151226 35 25 C32.0348675 27.89421752 28.94137377 29.79870437 25.40234375 31.90234375 C15.73303329 37.86379004 9.96610459 48.13952701 6.625 58.8125 C3.42199073 74.6954635 7.29313174 89.65995888 16 103 C20.92775868 109.24659866 26.95723546 113.40957102 34 117 C34.76183594 117.41507812 35.52367187 117.83015625 36.30859375 118.2578125 C47.33061161 123.30148787 62.92886299 122.99805033 74.25 118.9375 C85.69500814 113.6104232 94.68997091 105.99913328 101 95 C104.30044826 98.077445 106.75816419 101.36878825 109.25 105.125 C109.95640625 106.17945313 110.6628125 107.23390625 111.390625 108.3203125 C113 111 113 111 113 113 C113.73476563 112.88269531 114.46953125 112.76539063 115.2265625 112.64453125 C118 113 118 113 120.2734375 115.44921875 C120.96695313 116.51785156 121.66046875 117.58648437 122.375 118.6875 C123.43847656 120.27111328 123.43847656 120.27111328 124.5234375 121.88671875 C126 125 126 125 126.10546875 127.5 C124.46828865 131.20245676 121.85778145 133.5657667 118.9375 136.3125 C118.36966797 136.86228516 117.80183594 137.41207031 117.21679688 137.97851562 C115.82009075 139.32827365 114.41121163 140.66541525 113 142 C110.32281539 140.69953685 107.7745245 139.29820208 105.25 137.72265625 C104.5590625 137.29146484 103.868125 136.86027344 103.15625 136.41601562 C102.4446875 135.96935547 101.733125 135.52269531 101 135.0625 C100.2884375 134.61970703 99.576875 134.17691406 98.84375 133.72070312 C96.01695218 131.95131755 93.27999635 130.2219369 90.6640625 128.1484375 C90.11492187 127.76945312 89.56578125 127.39046875 89 127 C86.18882252 127.51527389 86.18882252 127.51527389 83 129 C82.19691406 129.12117187 81.39382813 129.24234375 80.56640625 129.3671875 C77.26243931 130.08394705 75.56648022 130.75058078 73 133 C70.53626552 138.21302309 69.55703817 143.99959636 68.46875 149.62695312 C66.52307692 159.47692308 66.52307692 159.47692308 65 161 C63.58429877 161.08651611 62.164405 161.10704904 60.74609375 161.09765625 C59.89208984 161.09443359 59.03808594 161.09121094 58.15820312 161.08789062 C57.26037109 161.07951172 56.36253906 161.07113281 55.4375 161.0625 C54.53580078 161.05798828 53.63410156 161.05347656 52.70507812 161.04882812 C50.46998686 161.03700225 48.23502563 161.0205222 46 161 C44.17160153 156.63215922 42.83931548 152.68551931 42.21875 147.984375 C41.41930527 138.37752443 41.41930527 138.37752443 36.33203125 130.84765625 C33.51424383 129.88166186 30.95161283 129.33663022 28 129 C27.67 128.67 27.34 128.34 27 128 C21.7012963 127.0667056 18.21017318 130.01995893 14 132.8125 C11.93943302 134.14502532 9.87849543 135.47696032 7.81640625 136.80712891 C6.27200311 137.82137 4.75740317 138.8807611 3.25 139.94921875 C1 141 1 141 -0.94921875 140.51953125 C-3.76633482 138.43218239 -6.31224618 136.13573293 -8.8125 133.6875 C-9.5849707 132.9769043 -9.5849707 132.9769043 -10.37304688 132.25195312 C-11.83203125 130.82421875 -11.83203125 130.82421875 -14 128 C-13.71436823 124.05203219 -12.36018145 121.74285123 -9.953125 118.671875 C-9.35628906 117.87136719 -8.75945312 117.07085937 -8.14453125 116.24609375 C-6.88325441 114.584329 -5.60451337 112.93567381 -4.30859375 111.30078125 C-0.93548943 106.9242478 -0.93548943 106.9242478 -0.17382812 101.66601562 C-0.94160116 99.33062244 -1.94666348 97.2186507 -3 95 C-3.13543213 94.27393555 -3.27086426 93.54787109 -3.41040039 92.79980469 C-3.90566943 90.31858423 -4.38034132 88.96119661 -6 87 C-10.40318383 84.96118681 -14.95557632 84.00000837 -19.6875 83 C-20.96173828 82.70222656 -22.23597656 82.40445313 -23.54882812 82.09765625 C-26.69224463 81.36772433 -29.84535954 80.67978784 -33 80 C-33 73.4 -33 66.8 -33 60 C-29.1362847 58.45451388 -26.62475789 57.67018519 -22.65625 57.1328125 C-11.49143744 55.8404568 -11.49143744 55.8404568 -2.34375 50.1796875 C-0.19918818 45.10505574 0.39605282 41.32961351 -1 36 C-2.2127531 33.61353483 -2.2127531 33.61353483 -3.7578125 31.27734375 C-4.30050781 30.40916016 -4.84320313 29.54097656 -5.40234375 28.64648438 C-6.55480206 26.83417181 -7.71108346 25.02428494 -8.87109375 23.21679688 C-9.41121094 22.34990234 -9.95132813 21.48300781 -10.5078125 20.58984375 C-11.00941895 19.80472412 -11.51102539 19.01960449 -12.02783203 18.21069336 C-13 16 -13 16 -12.82592773 13.90161133 C-11.90587973 11.78329802 -10.93264356 10.58740218 -9.27734375 8.984375 C-8.73916016 8.45585937 -8.20097656 7.92734375 -7.64648438 7.3828125 C-7.08251953 6.84398437 -6.51855469 6.30515625 -5.9375 5.75 C-5.36966797 5.19570312 -4.80183594 4.64140625 -4.21679688 4.0703125 C-2.81787531 2.70665786 -1.40980886 1.35239583 0 0 Z " fill="#F0F0F0" transform="translate(198,203)"/>
<path d="M0 0 C2 2 2 2 3.3125 5.375 C5.10511735 9.22580765 6.45519653 10.75207585 10 13 C12.83205215 13.88978094 15.38619834 14.1264962 18.34574604 14.13142776 C19.21327545 14.13526891 20.08080485 14.13911005 20.97462302 14.1430676 C21.923152 14.14220112 22.87168097 14.14133463 23.84895325 14.14044189 C24.86015297 14.14341302 25.8713527 14.14638414 26.91319484 14.1494453 C30.31168574 14.15813761 33.71014143 14.15964099 37.10864258 14.16113281 C39.54119441 14.16576057 41.97374552 14.17078517 44.40629578 14.17617798 C51.02201958 14.1893072 57.63773606 14.19578454 64.25346971 14.20018864 C68.38500678 14.20295235 72.51654152 14.20718992 76.64807701 14.21169281 C88.08918136 14.22388393 99.53028384 14.23418381 110.97139454 14.2375679 C112.0694938 14.23789725 112.0694938 14.23789725 113.18977688 14.23823325 C113.92358336 14.23845153 114.65738985 14.23866981 115.4134329 14.2388947 C116.90037779 14.23933817 118.38732269 14.23978473 119.87426758 14.24023438 C120.61184186 14.2404558 121.34941615 14.24067723 122.10934117 14.24090537 C134.0609935 14.2448535 146.01258487 14.26230866 157.96421365 14.2855939 C170.2374412 14.30931255 182.51063816 14.32176997 194.783889 14.32293582 C201.67381371 14.32385225 208.56365897 14.32959654 215.45356178 14.34775543 C221.93369283 14.36477431 228.4137133 14.36640519 234.89386177 14.35761642 C237.27267612 14.35684457 239.6514985 14.3612082 242.03029251 14.37107468 C245.27707424 14.38375192 248.52331803 14.37793997 251.77009583 14.36749268 C252.71193263 14.37554908 253.65376944 14.38360548 254.62414676 14.39190602 C261.25902612 14.34195721 266.4259168 13.5740832 271.3125 8.6875 C273.09213218 5.85327097 274.10271518 3.2152706 275 0 C275.33 0 275.66 0 276 0 C275.85680243 5.74092092 275.02776923 9.80770415 271.64453125 14.4921875 C266.24915633 19.43901581 260.66859222 19.43281792 253.76541138 19.39440918 C252.22260555 19.40354584 252.22260555 19.40354584 250.64863193 19.41286707 C247.20330504 19.42951165 243.75834713 19.42471904 240.31298828 19.41992188 C237.84235245 19.42726133 235.37172006 19.4358472 232.90109253 19.44558716 C226.88733236 19.46551508 220.87371717 19.47118305 214.85993685 19.46939927 C209.970739 19.46809073 205.08157119 19.47190047 200.192379 19.47932434 C198.783095 19.48142358 197.37381101 19.48352118 195.96452701 19.48561716 C194.9123061 19.48718245 194.9123061 19.48718245 193.83882819 19.48877937 C180.5771028 19.50767451 167.31543275 19.50663378 154.05369948 19.49981004 C141.92819492 19.49423515 129.80290168 19.51505886 117.6774465 19.54817051 C105.21994301 19.58192424 92.76254071 19.59707375 80.30499065 19.59245348 C73.3138561 19.59021047 66.32291687 19.59542706 59.33182144 19.62034607 C52.7571918 19.64358153 46.18292829 19.64075603 39.60826492 19.62041855 C37.19600585 19.61700403 34.7837173 19.62211647 32.37149811 19.63640213 C29.07666979 19.65456755 25.78333892 19.64186381 22.48855591 19.62145996 C21.53543239 19.63397781 20.58230887 19.64649566 19.60030282 19.65939283 C13.19783517 19.57447196 8.97174705 18.08899672 4 14 C0.44505116 9.87167232 0.33151806 5.24713075 0 0 Z " fill="#DDDDDD" transform="translate(118,467)"/>
<path d="M0 0 C21.12 0 42.24 0 64 0 C64.495 1.485 64.495 1.485 65 3 C43.22 3 21.44 3 -1 3 C-0.67 2.01 -0.34 1.02 0 0 Z " fill="#1B1B1B" transform="translate(224,36)"/>
</svg>
